HIERARCHY
ROOT Hip
{
  OFFSET 0.000000 0.000000 0.000000
  CHANNELS 6 Xposition Yposition Zposition Zrotation Xrotation Yrotation
  JOINT RHip
  {
    OFFSET 0.000137 0.000020 0.000130
    CHANNELS 3 Zrotation Xrotation Yrotation
    JOINT RKnee
    {
      OFFSET -0.000204 0.000519 -0.000069
      CHANNELS 3 Zrotation Xrotation Yrotation
      JOINT RFoot
      {
        OFFSET 0.000186 0.000770 -0.000164
        CHANNELS 3 Zrotation Xrotation Yrotation
        End Site
        {
          OFFSET 0.000000 0.050000 0.000000
        }
      }
    }
  }
  JOINT LHip
  {
    OFFSET -0.000137 -0.000020 -0.000130
    CHANNELS 3 Zrotation Xrotation Yrotation
    JOINT LKnee
    {
      OFFSET -0.000113 0.000565 0.000093
      CHANNELS 3 Zrotation Xrotation Yrotation
      JOINT LFoot
      {
        OFFSET 0.000045 0.000717 -0.000022
        CHANNELS 3 Zrotation Xrotation Yrotation
        End Site
        {
          OFFSET 0.000000 0.050000 0.000000
        }
      }
    }
  }
  JOINT Spine
  {
    OFFSET 0.000007 -0.000442 -0.000112
    CHANNELS 3 Zrotation Xrotation Yrotation
    JOINT Thorax
    {
      OFFSET 0.000018 -0.000285 -0.000080
      CHANNELS 3 Zrotation Xrotation Yrotation
      JOINT Nose
      {
        OFFSET -0.000144 -0.000346 0.000045
        CHANNELS 3 Zrotation Xrotation Yrotation
        JOINT Head
        {
          OFFSET 0.000300 -0.000111 0.000018
          CHANNELS 3 Zrotation Xrotation Yrotation
          End Site
          {
            OFFSET 0.000000 0.050000 0.000000
          }
        }
      }
      JOINT LShoulder
      {
        OFFSET -0.000081 -0.000025 -0.000087
        CHANNELS 3 Zrotation Xrotation Yrotation
        JOINT LElbow
        {
          OFFSET -0.000286 0.000036 -0.000108
          CHANNELS 3 Zrotation Xrotation Yrotation
          JOINT LWrist
          {
            OFFSET 0.000014 -0.000083 0.000405
            CHANNELS 3 Zrotation Xrotation Yrotation
            End Site
            {
              OFFSET 0.000000 0.050000 0.000000
            }
          }
        }
      }
      JOINT RShoulder
      {
        OFFSET 0.000083 0.000040 0.000121
        CHANNELS 3 Zrotation Xrotation Yrotation
        JOINT RElbow
        {
          OFFSET -0.000092 0.000062 0.000101
          CHANNELS 3 Zrotation Xrotation Yrotation
          JOINT RWrist
          {
            OFFSET -0.000090 -0.000156 0.000035
            CHANNELS 3 Zrotation Xrotation Yrotation
            End Site
            {
              OFFSET 0.000000 0.050000 0.000000
            }
          }
        }
      }
    }
  }
}
MOTION
Frames: 14
Frame Time: 0.033333
0.000000 0.000000 0.000000 0.000000 0.000000 0.000000 -53.701939 49.888995 26.500471 21.270151 -7.085048 1.332058 -13.260710 -11.683885 -1.362807 59.872440 -55.286314 33.567518 11.199736 9.187536 -0.902741 -3.622503 -1.747924 -0.055279 -0.847792 -165.640362 -6.722431 -3.843773 -162.705553 -24.885596 153.006190 8.116981 -32.936386 -110.092204 3.234412 4.625853 57.062373 -63.423655 37.137151 76.376212 -21.492481 16.981348 -1.996088 101.504503 2.443162 -35.624411 57.852649 20.136972 39.951885 44.649550 -16.979006 141.025357 14.178382 -38.727345
0.000000 0.000000 0.000000 0.000000 0.000000 0.000000 -39.831178 63.328816 25.191860 -3.284482 -1.472648 -0.042224 -1.326484 5.966543 0.069133 42.726136 -71.510451 31.459061 -6.042783 23.109294 1.236520 -4.758657 4.944978 0.205596 -2.870944 -165.407966 -22.148302 -39.198489 -127.266845 -71.383001 148.202405 4.190640 -14.638932 -121.006037 -0.909220 -1.607168 5.414690 -78.959723 4.461398 10.526076 -41.151234 3.960953 37.254805 94.425979 -40.019982 -16.142958 77.173274 12.911560 11.254443 -11.413437 1.128269 141.784149 -0.707984 2.043429
0.000000 0.000000 0.000000 0.000000 0.000000 0.000000 -55.599129 44.076876 24.095360 4.547502 8.453007 -0.336238 -2.037306 3.919570 0.069720 67.304067 -51.131832 35.329936 -6.796029 25.415336 1.534215 4.227836 5.248564 -0.193868 -1.045210 -168.874287 -10.700594 -176.317141 -0.724630 -22.255197 150.291590 -1.819918 6.854213 -121.953513 -2.233053 -4.023538 8.633966 -82.713319 7.603502 15.449484 -15.224908 2.077194 53.032502 74.644237 -41.652799 -18.875105 47.153398 8.297969 -15.989811 -31.787219 -4.580230 107.970674 1.146379 -1.576960
0.000000 0.000000 0.000000 0.000000 0.000000 0.000000 -9.062620 -59.009039 -5.135605 -2.629672 2.150171 0.049357 0.479914 8.347382 -0.035021 9.300609 117.944166 -15.402353 -15.508333 19.893781 2.735925 13.118303 1.257723 -0.144621 -109.011523 -63.252575 -81.624826 -5.856933 -158.461953 -30.107907 77.242131 -85.836934 73.214066 -128.837637 -8.269284 -17.174175 -82.614399 16.312768 14.356781 -8.001480 56.063791 4.265144 72.997590 35.997498 -27.034749 35.313884 7.592733 -2.420048 -24.542883 -50.212311 -11.638882 62.931456 48.771812 -31.010602
0.000000 0.000000 0.000000 0.000000 0.000000 0.000000 -73.354364 -21.590045 -16.164282 -8.735797 17.261691 1.328491 7.728301 11.163003 -0.756384 91.213817 22.549694 -23.019787 -19.475178 34.569056 6.113296 6.703574 -2.174876 0.127390 -16.855385 -155.049317 -67.618464 -5.023826 -160.278185 -28.328610 130.237859 -44.488357 82.815640 -152.104676 -8.360454 -32.796914 66.397749 34.690884 -23.101832 16.185926 60.127263 -9.410528 -1.696357 -162.634844 -11.074536 -63.843882 -3.560926 -2.218811 -59.212079 10.989323 6.257323 30.675621 84.694244 -28.071070
0.000000 0.000000 0.000000 0.000000 0.000000 0.000000 -55.866270 -39.904264 -21.790136 -13.363936 13.203052 1.553576 13.476948 12.464292 -1.478457 73.492322 47.904048 -36.698547 -15.761492 30.884964 4.379546 6.140197 -5.423598 0.291110 -2.053931 -165.764459 -16.338488 -28.809636 -131.602167 -59.499135 -6.283343 -167.877392 -54.668816 -56.582018 -108.906779 -73.980744 26.191184 65.905442 -17.150780 17.271979 68.230871 -11.748874 -150.420376 -12.959855 -46.554325 -52.543010 -51.349553 -26.697862 -57.075293 -24.116245 -13.252289 -8.055519 91.943833 8.332593
0.000000 0.000000 0.000000 0.000000 0.000000 0.000000 -72.672257 -23.596183 -17.468983 -14.085113 10.940475 1.355629 16.422243 4.840272 -0.698860 89.154008 24.726155 -24.374644 -7.319729 33.027850 2.172834 7.012237 -9.237764 0.567221 1.412403 -168.894373 14.451613 -8.072730 -155.826519 -36.476857 -170.804159 -0.008474 -0.105370 -160.867227 -14.658598 -74.700736 42.879694 51.681351 -21.536037 14.716108 57.917640 -8.174621 -148.326264 -4.783852 -16.753748 -63.992936 -33.886972 -21.553741 -38.400583 -36.487928 -13.096924 -0.197063 97.833369 0.226030
0.000000 0.000000 0.000000 0.000000 0.000000 0.000000 -64.493951 -33.725421 -21.651646 -25.201198 10.903512 2.444355 15.211461 9.731564 -1.302535 80.085578 37.179714 -31.566014 -2.012667 28.704803 0.515033 8.863999 -8.189356 0.635814 -1.863884 -172.833798 -29.124545 -163.807905 -7.312680 -48.381187 -159.689610 -8.262125 -43.920876 -152.630524 -20.182615 -72.326951 22.416719 81.155394 -19.263489 11.978261 55.850412 -6.365581 -149.990936 -13.564908 -47.855697 -32.149556 -59.788532 -18.812392 -37.388909 -33.824643 -11.748439 -27.407177 76.898599 21.914607
0.000000 0.000000 0.000000 0.000000 0.000000 0.000000 -75.906537 1.842240 1.436945 -25.384496 7.824577 1.764836 15.507964 9.497232 -1.296103 104.040931 -1.948909 2.496172 7.270826 31.718953 -2.068142 4.455170 -16.346392 0.640188 -0.341540 -172.677654 -5.333833 0.591981 -170.834017 7.374923 -1.223122 -171.671044 -16.680154 -150.227250 1.982789 7.449237 52.784852 -26.473478 13.315749 24.120702 15.434595 -3.316882 -166.418808 4.721658 38.194580 -65.578588 9.473826 6.111103 -31.934736 -37.593957 -11.124925 -13.609247 95.288524 14.912983
0.000000 0.000000 0.000000 0.000000 0.000000 0.000000 -74.807059 -23.096418 -17.760314 -19.069811 12.079471 2.036311 10.243802 8.844279 -0.794304 88.065698 23.812860 -23.043702 -4.231400 25.917850 0.974120 8.211724 -16.866806 1.219536 -2.238512 -174.807698 -46.620590 -10.384253 -160.862615 -56.652739 10.152319 -159.146977 51.535886 -141.806241 -19.213287 -52.105248 16.182833 80.593657 -13.748114 30.662673 10.161432 -2.792599 -135.629973 24.787519 56.639037 -58.596650 -21.051865 -11.904648 -39.816408 -44.436984 -16.829460 -9.898432 136.605792 24.556444
0.000000 0.000000 0.000000 0.000000 0.000000 0.000000 -47.993728 -56.366406 -26.831744 -20.128738 18.500265 3.311437 6.809174 9.315666 -0.555421 52.286627 62.064871 -32.903774 2.792169 38.990712 -0.988675 7.867262 -9.283088 0.639725 -177.061943 -1.567579 -56.156199 -140.016557 -30.701603 -74.075129 -5.638233 -159.345923 -30.244743 -142.123052 1.472648 4.290077 -21.310762 75.280335 16.512197 6.326012 26.764365 -1.506434 -4.394658 162.644112 28.222632 7.039756 -35.441256 2.252010 -34.695278 -15.323215 -4.812535 -125.313447 9.683785 18.606709
0.000000 0.000000 0.000000 0.000000 0.000000 0.000000 -91.361944 -33.164121 -33.916669 -15.308365 18.576218 2.518174 4.890324 10.503312 -0.449771 60.156255 28.061242 -16.470702 2.594648 31.061019 -0.721162 8.905682 -13.227027 1.034607 -15.044746 -160.392119 -74.772188 -10.521214 -158.230274 -51.171464 2.488702 -155.208216 11.288259 -131.365965 -4.090681 -9.037746 -87.480419 19.568639 18.741753 15.379823 21.634205 -2.955733 2.716427 163.267734 -18.316999 67.715939 14.108688 -9.491981 -22.136111 7.263228 1.422617 -128.196827 -4.094739 -8.420588
0.000000 0.000000 0.000000 0.000000 0.000000 0.000000 -91.213966 1.233864 1.260285 -5.570451 11.305648 0.551804 -5.140638 6.483436 0.291356 88.853021 -1.414657 1.386620 3.618144 25.355067 -0.814150 3.198262 -8.226287 0.230051 -166.797361 -9.332054 -70.387712 -1.642184 -161.226958 -9.910033 4.538165 -152.707213 18.538621 -137.948576 -6.695681 -17.306530 -99.085891 4.729930 5.545269 34.509508 20.689903 -6.490073 -90.529514 69.641032 70.138272 77.526972 39.108288 -31.836460 -68.985430 12.948724 8.917006 -90.533683 -72.980951 -73.491960
0.000000 0.000000 0.000000 0.000000 0.000000 0.000000 -85.866021 4.609858 4.289008 -7.991128 19.030582 1.341563 -6.235092 -0.772660 -0.042084 93.459971 -4.688851 4.980551 -1.949150 25.125182 0.434390 8.838806 -18.931015 1.476487 -21.209797 -153.607886 -77.216190 -22.008885 -147.644743 -67.669085 94.192123 -68.551519 72.506437 -129.239702 -7.696298 -16.139728 98.119221 -44.373389 50.359438 20.053578 29.394909 -5.310562 -35.459363 129.411500 68.159130 -77.139468 10.661236 8.510469 -89.011203 -4.263301 -4.190418 147.842785 16.292683 -52.821490
